<?xml version="1.0" encoding="UTF-8" standalone="no"?>
<!-- Created with Inkscape (http://www.inkscape.org/) -->

<svg
   version="1.1"
   id="svg9"
   width="336.936"
   height="387.41733"
   viewBox="0 0 336.936 387.41733"
   sodipodi:docname="Personal Logo.svg"
   inkscape:version="1.2 (dc2aedaf03, 2022-05-15)"
   xmlns:inkscape="http://www.inkscape.org/namespaces/inkscape"
   xmlns:sodipodi="http://sodipodi.sourceforge.net/DTD/sodipodi-0.dtd"
   xmlns="http://www.w3.org/2000/svg"
   xmlns:svg="http://www.w3.org/2000/svg">
  <defs
     id="defs13">
    <clipPath
       clipPathUnits="userSpaceOnUse"
       id="clipPath25">
      <path
         d="M 0,290.563 H 252.702 V 0 H 0 Z"
         id="path23" />
    </clipPath>
    <clipPath
       clipPathUnits="userSpaceOnUse"
       id="clipPath49">
      <path
         d="M 0,290.563 H 252.702 V 0 H 0 Z"
         id="path47" />
    </clipPath>
    <clipPath
       clipPathUnits="userSpaceOnUse"
       id="clipPath73">
      <path
         d="M 0,290.563 H 252.702 V 0 H 0 Z"
         id="path71" />
    </clipPath>
    <clipPath
       clipPathUnits="userSpaceOnUse"
       id="clipPath97">
      <path
         d="M 0,290.563 H 252.702 V 0 H 0 Z"
         id="path95" />
    </clipPath>
    <clipPath
       clipPathUnits="userSpaceOnUse"
       id="clipPath133">
      <path
         d="M 0,290.563 H 252.702 V 0 H 0 Z"
         id="path131" />
    </clipPath>
    <clipPath
       clipPathUnits="userSpaceOnUse"
       id="clipPath169">
      <path
         d="M 0,290.563 H 1222.032 V 0 H 0 Z"
         id="path167" />
    </clipPath>
    <clipPath
       clipPathUnits="userSpaceOnUse"
       id="clipPath213">
      <path
         d="M 0,290.563 H 1222 V 0 H 0 Z"
         id="path211" />
    </clipPath>
    <clipPath
       clipPathUnits="userSpaceOnUse"
       id="clipPath257">
      <path
         d="M 0,290.563 H 1222.032 V 0 H 0 Z"
         id="path255" />
    </clipPath>
    <clipPath
       clipPathUnits="userSpaceOnUse"
       id="clipPath289">
      <path
         d="M 0,290.563 H 1222 V 0 H 0 Z"
         id="path287" />
    </clipPath>
    <clipPath
       clipPathUnits="userSpaceOnUse"
       id="clipPath329">
      <path
         d="M 0,290.563 H 1222.702 V 0 H 0 Z"
         id="path327" />
    </clipPath>
    <clipPath
       clipPathUnits="userSpaceOnUse"
       id="clipPath353">
      <path
         d="M 0,400 H 1600 V 0 H 0 Z"
         id="path351" />
    </clipPath>
  </defs>
  <sodipodi:namedview
     id="namedview11"
     pagecolor="#ffffff"
     bordercolor="#000000"
     borderopacity="0.25"
     inkscape:showpageshadow="2"
     inkscape:pageopacity="0.0"
     inkscape:pagecheckerboard="0"
     inkscape:deskcolor="#d1d1d1"
     showgrid="false"
     inkscape:zoom="1.4856974"
     inkscape:cx="111.05895"
     inkscape:cy="211.34855"
     inkscape:window-width="1920"
     inkscape:window-height="1017"
     inkscape:window-x="-8"
     inkscape:window-y="-8"
     inkscape:window-maximized="1"
     inkscape:current-layer="g31">
    <inkscape:page
       x="0"
       y="0"
       id="page15"
       width="336.936"
       height="387.41733" />
    <inkscape:page
       x="356.936"
       y="0"
       id="page39"
       width="336.936"
       height="387.41733" />
    <inkscape:page
       x="713.872"
       y="0"
       id="page63"
       width="336.936"
       height="387.41733" />
    <inkscape:page
       x="1070.808"
       y="0"
       id="page87"
       width="336.936"
       height="387.41733" />
    <inkscape:page
       x="1427.744"
       y="0"
       id="page123"
       width="336.936"
       height="387.41733" />
    <inkscape:page
       x="1784.68"
       y="0"
       id="page159"
       width="1629.3733"
       height="387.41733" />
    <inkscape:page
       x="3434.0533"
       y="0"
       id="page203"
       width="1629.3333"
       height="387.41733" />
    <inkscape:page
       x="5083.3867"
       y="0"
       id="page247"
       width="1629.3733"
       height="387.41733" />
    <inkscape:page
       x="6732.76"
       y="0"
       id="page279"
       width="1629.3333"
       height="387.41733" />
    <inkscape:page
       x="8382.0933"
       y="0"
       id="page311"
       width="1630.2667"
       height="387.41733" />
    <inkscape:page
       x="10032.36"
       y="0"
       id="page343"
       width="2133.3333"
       height="533.33333" />
  </sodipodi:namedview>
  <g
     id="g17"
     inkscape:groupmode="layer"
     inkscape:label="Page 1"
     transform="matrix(1.3333333,0,0,-1.3333333,0,387.41733)">
    <g
       id="g19">
      <g
         id="g21"
         clip-path="url(#clipPath25)">
        <g
           id="g27"
           transform="translate(211.0582,21.7162)">
          <path
             d="m 0,0 -25.498,14.724 -17.875,10.321 -6.283,-3.628 -34.74,-20.057 -92.44,53.37 8.036,4.626 84.404,-48.729 42.763,24.687 14.978,8.65 L 0.008,59.356 8.045,54.73 -18.632,39.33 -35.351,29.677 -17.473,19.356 8.038,4.626 Z M 35.552,8.046 4.986,25.694 c -2.551,1.473 -2.552,5.156 -10e-4,6.63 l 29.22,16.884 c 2.551,1.476 2.55,5.159 -0.003,6.631 L 0.398,75.341 c -1.184,0.682 -2.643,0.682 -3.827,-10e-4 L -82.482,29.698 c -1.184,-0.684 -2.643,-0.684 -3.828,0 l -79.052,45.64 c -1.184,0.683 -2.644,0.683 -3.828,0 l -33.807,-19.517 c -2.551,-1.473 -2.551,-5.158 0,-6.631 L -86.31,-18.176 c 1.185,-0.684 2.644,-0.684 3.828,0 L -44.13,3.966 c 1.184,0.683 2.643,0.683 3.828,0 L -2.08,-18.103 c 1.184,-0.682 2.644,-0.682 3.829,0.001 L 35.552,1.416 c 2.552,1.473 2.552,5.157 0,6.63"
             style="fill:#50c9f0;fill-opacity:1;fill-rule:nonzero;stroke:none"
             id="path29" />
        </g>
        <g
           id="g31"
           transform="translate(232.919,178.6415)">
          <path
             d="m 0,0 v -19.287 -47.774 l -7.875,4.561 v 38.666 18.452 l -15.501,-8.945 -82.882,-47.831 -82.88,47.831 -15.502,8.945 V -23.834 -62.5 l -7.876,-4.561 V -19.287 0 8.259 l 3.577,-2.064 19.801,-11.427 82.88,-47.833 82.882,47.833 19.8,11.427 L 0,8.259 Z M 12.867,36.145 -23.376,15.219 v -0.127 l -81.142,-46.848 c -1.076,-0.622 -2.403,-0.622 -3.479,0 l -81.141,46.848 v 0.129 l -36.244,20.925 c -2.319,1.34 -5.218,-0.334 -5.218,-3.012 V -88.567 c 0,-2.678 2.899,-4.352 5.218,-3.013 l 34.504,19.919 c 1.077,0.621 1.74,1.77 1.74,3.013 v 29.84 c 0,2.678 2.899,4.351 5.218,3.012 l 75.923,-43.834 c 1.076,-0.621 2.403,-0.621 3.478,0 l 75.925,43.834 c 2.32,1.339 5.218,-0.334 5.218,-3.012 v -29.861 c 0,-1.242 0.663,-2.391 1.74,-3.012 l 34.503,-19.922 c 2.32,-1.338 5.219,0.335 5.219,3.014 V 33.133 c 0,2.678 -2.899,4.351 -5.219,3.012"
             style="fill:#50c9f0;fill-opacity:1;fill-rule:nonzero;stroke:none"
             id="path33" />
        </g>
        <g
           id="g35"
           transform="translate(126.6632,271.6224)">
          <path
             d="M 0,0 86.183,-49.758 78.147,-54.383 0,-9.265 l -78.149,-45.118 -8.037,4.625 z m -109.846,-52.367 33.475,-19.326 c 1.235,-0.714 2.758,-0.714 3.993,0 l 70.381,40.632 c 1.235,0.714 2.758,0.714 3.993,0 l 70.378,-40.632 c 1.236,-0.714 2.757,-0.714 3.994,0 l 33.475,19.326 c 2.662,1.537 2.662,5.38 0,6.916 L 1.996,16.814 c -1.235,0.714 -2.758,0.714 -3.993,0 l -107.849,-62.265 c -2.662,-1.536 -2.662,-5.379 0,-6.916"
             style="fill:#50c9f0;fill-opacity:1;fill-rule:nonzero;stroke:none"
             id="path37" />
        </g>
      </g>
    </g>
  </g>
  <g
     id="g41"
     inkscape:groupmode="layer"
     inkscape:label="Page 2"
     transform="matrix(1.3333333,0,0,-1.3333333,356.936,387.41733)">
    <g
       id="g43">
      <g
         id="g45"
         clip-path="url(#clipPath49)">
        <g
           id="g51"
           transform="translate(207.5052,96.6079)">
          <path
             d="m 0,0 -79.527,-45.916 c -1.191,-0.688 -2.659,-0.688 -3.851,0 l -79.526,45.914 c -1.191,0.688 -2.659,0.688 -3.851,0 l -34.008,-19.634 c -2.568,-1.482 -2.568,-5.188 0,-6.671 l 117.385,-67.769 c 1.192,-0.688 2.66,-0.688 3.851,0 l 38.581,22.274 c 1.192,0.688 2.659,0.688 3.851,0 l 38.452,-22.2 c 1.191,-0.686 2.659,-0.686 3.851,10e-4 l 34.006,19.634 c 2.567,1.482 2.567,5.188 0,6.671 L 8.465,-49.942 c -2.567,1.481 -2.568,5.186 -10e-4,6.669 l 29.394,16.985 c 2.567,1.484 2.566,5.189 -0.002,6.671 L 3.85,0.001 C 2.659,0.687 1.191,0.687 0,0 m -38.433,-40.266 15.068,8.703 26.822,15.483 8.085,-4.652 -26.837,-15.494 -16.819,-9.711 17.986,-10.382 25.663,-14.819 -8.086,-4.653 -25.65,14.812 -17.982,10.382 -6.321,-3.648 -34.949,-20.178 -92.993,53.691 8.084,4.652 84.909,-49.021 z"
             style="fill:#000000;fill-opacity:1;fill-rule:nonzero;stroke:none"
             id="path53" />
        </g>
        <g
           id="g55"
           transform="translate(27.0809,154.7046)">
          <path
             d="m 0,0 v -38.897 l -7.923,-4.588 v 48.06 19.403 8.307 l 3.597,-2.076 19.92,-11.495 83.377,-48.119 83.378,48.119 19.919,11.495 3.597,2.076 V 23.978 4.575 -43.485 l -7.923,4.588 V 0 18.562 L 182.349,9.564 98.971,-38.553 15.594,9.564 0,18.562 Z M 20.843,-12.033 97.222,-56.13 c 1.082,-0.624 2.416,-0.624 3.498,0 l 76.38,44.097 c 2.333,1.347 5.249,-0.336 5.249,-3.03 v -30.04 c 0,-1.25 0.667,-2.405 1.75,-3.031 l 34.711,-20.04 c 2.333,-1.347 5.25,0.337 5.25,3.031 V 57.309 c 0,2.693 -2.917,4.377 -5.25,3.03 L 182.349,39.288 V 39.16 L 100.721,-7.969 c -1.083,-0.626 -2.417,-0.626 -3.499,0 L 15.594,39.16 v 0.13 l -36.46,21.05 c -2.334,1.348 -5.249,-0.337 -5.249,-3.03 V -65.121 c 0,-2.693 2.915,-4.377 5.249,-3.03 l 34.71,20.039 c 1.083,0.624 1.75,1.779 1.75,3.03 v 30.019 c 0,2.694 2.917,4.377 5.249,3.03"
             style="fill:#000000;fill-opacity:1;fill-rule:nonzero;stroke:none"
             id="path57" />
        </g>
        <g
           id="g59"
           transform="translate(39.3519,222.1636)">
          <path
             d="M 0,0 86.702,50.056 173.401,0 165.317,-4.652 86.702,40.735 8.085,-4.652 Z m 88.709,18.81 70.801,-40.876 c 1.243,-0.718 2.774,-0.718 4.017,0 l 33.676,19.441 c 2.678,1.547 2.678,5.413 0,6.958 L 88.709,66.972 c -1.242,0.717 -2.773,0.717 -4.016,0 L -23.802,4.333 c -2.678,-1.545 -2.678,-5.411 0,-6.958 L 9.874,-22.066 c 1.243,-0.718 2.774,-0.718 4.017,0 L 84.693,18.81 c 1.243,0.717 2.774,0.717 4.016,0"
             style="fill:#000000;fill-opacity:1;fill-rule:nonzero;stroke:none"
             id="path61" />
        </g>
      </g>
    </g>
  </g>
  <g
     id="g65"
     inkscape:groupmode="layer"
     inkscape:label="Page 3"
     transform="matrix(1.3333333,0,0,-1.3333333,713.872,387.41733)">
    <g
       id="g67">
      <g
         id="g69"
         clip-path="url(#clipPath73)">
        <g
           id="g75"
           transform="translate(210.4868,22.8018)">
          <path
             d="M 0,0 -42.9,24.771 -83.476,1.346 -177.098,55.396 -166.96,61.231 -83.476,13.033 0.008,61.231 10.147,55.396 -32.78,30.615 10.139,5.834 Z M 35.166,9.22 4.933,26.676 c -2.524,1.457 -2.525,5.099 -10e-4,6.557 l 28.901,16.701 c 2.524,1.459 2.523,5.102 -0.002,6.558 L 0.395,75.781 C -0.776,76.457 -2.22,76.457 -3.39,75.78 L -81.583,30.635 c -1.171,-0.676 -2.615,-0.676 -3.787,0 l -78.192,45.143 c -1.17,0.677 -2.614,0.677 -3.786,0 l -33.438,-19.304 c -2.524,-1.457 -2.524,-5.102 0,-6.559 L -85.37,-16.718 c 1.172,-0.676 2.616,-0.676 3.787,0 l 37.934,21.901 c 1.171,0.676 2.615,0.676 3.787,0 l 37.806,-21.828 c 1.171,-0.675 2.615,-0.675 3.786,0.001 L 35.166,2.661 c 2.523,1.457 2.523,5.102 0,6.559"
             style="fill:#ffffff;fill-opacity:1;fill-rule:nonzero;stroke:none"
             id="path77" />
        </g>
        <g
           id="g79"
           transform="translate(233.2026,111.0537)">
          <path
             d="M 0,0 -9.974,5.776 V 61.011 L -106.193,5.483 -202.412,61.011 V 5.776 L -212.387,0 V 78.286 L -106.193,17 0,78.286 Z M 11.635,103.978 -24.214,83.279 v -0.126 l -80.258,-46.338 c -1.065,-0.615 -2.377,-0.615 -3.441,0 l -80.258,46.338 v 0.128 l -35.85,20.698 c -2.293,1.325 -5.16,-0.332 -5.16,-2.98 V -19.378 c 0,-2.648 2.867,-4.304 5.16,-2.979 l 34.129,19.703 c 1.065,0.613 1.721,1.75 1.721,2.979 V 29.84 c 0,2.648 2.868,4.305 5.161,2.979 l 75.097,-43.356 c 1.064,-0.614 2.376,-0.614 3.44,0 l 75.098,43.356 c 2.295,1.326 5.161,-0.331 5.161,-2.979 V 0.305 c 0,-1.229 0.656,-2.365 1.721,-2.98 L 11.635,-22.38 c 2.295,-1.323 5.162,0.331 5.162,2.981 v 120.397 c 0,2.648 -2.867,4.304 -5.162,2.98"
             style="fill:#ffffff;fill-opacity:1;fill-rule:nonzero;stroke:none"
             id="path81" />
        </g>
        <g
           id="g83"
           transform="translate(127.0107,272.5098)">
          <path
             d="M 0,0 87.432,-50.479 77.296,-56.313 0,-11.687 l -77.296,-44.626 -10.138,5.834 z m -108.649,-53.059 33.111,-19.115 c 1.221,-0.706 2.727,-0.706 3.949,0 l 69.615,40.191 c 1.222,0.705 2.727,0.705 3.949,0 l 69.612,-40.191 c 1.223,-0.706 2.727,-0.706 3.95,0 l 33.111,19.115 c 2.633,1.521 2.633,5.322 0,6.841 L 1.975,15.37 c -1.222,0.705 -2.727,0.705 -3.949,0 l -106.675,-61.588 c -2.633,-1.519 -2.633,-5.32 0,-6.841"
             style="fill:#ffffff;fill-opacity:1;fill-rule:nonzero;stroke:none"
             id="path85" />
        </g>
      </g>
    </g>
  </g>
  <g
     id="g89"
     inkscape:groupmode="layer"
     inkscape:label="Page 4"
     transform="matrix(1.3333333,0,0,-1.3333333,1070.808,387.41733)">
    <g
       id="g91">
      <g
         id="g93"
         clip-path="url(#clipPath97)">
        <g
           id="g99"
           transform="translate(207.9471,97.4155)">
          <path
             d="m 0,0 -78.906,-45.557 c -1.181,-0.682 -2.638,-0.682 -3.821,0 l -78.904,45.555 c -1.181,0.683 -2.638,0.683 -3.821,0 l -33.742,-19.48 c -2.547,-1.471 -2.547,-5.148 0,-6.619 l 116.467,-67.24 c 1.183,-0.682 2.64,-0.682 3.821,0 l 38.28,22.101 c 1.182,0.682 2.639,0.682 3.821,0 L 1.347,-93.267 c 1.181,-0.681 2.637,-0.681 3.82,10e-4 l 33.74,19.48 c 2.547,1.471 2.547,5.148 0,6.619 L 8.398,-49.552 c -2.546,1.47 -2.547,5.146 -10e-4,6.617 l 29.166,16.853 c 2.546,1.472 2.545,5.149 -0.002,6.618 L 3.819,0.001 C 2.638,0.683 1.182,0.683 0,0"
             style="fill:#50c9f0;fill-opacity:1;fill-rule:nonzero;stroke:none"
             id="path101" />
        </g>
        <g
           id="g103"
           transform="translate(169.8143,57.4649)">
          <path
             d="M 0,0 14.95,8.634 41.563,23.997 49.585,19.38 22.957,4.009 6.27,-5.626 24.114,-15.928 49.578,-30.63 l -8.023,-4.618 -25.45,14.696 -17.842,10.302 -6.271,-3.621 -34.675,-20.019 -92.267,53.27 8.021,4.617 84.246,-48.638 z"
             style="fill:#ffffff;fill-opacity:1;fill-rule:nonzero;stroke:none"
             id="path105" />
        </g>
        <g
           id="g107"
           transform="translate(49.6131,143.1192)">
          <path
             d="m 0,0 75.781,-43.751 c 1.074,-0.621 2.398,-0.621 3.472,0 L 155.035,0 c 2.316,1.337 5.208,-0.333 5.208,-3.006 v -29.805 c 0,-1.24 0.662,-2.386 1.736,-3.007 l 34.44,-19.884 c 2.315,-1.336 5.209,0.334 5.209,3.008 V 68.8 c 0,2.673 -2.894,4.343 -5.209,3.007 L 160.243,50.92 V 50.793 L 79.254,4.032 c -1.075,-0.62 -2.399,-0.62 -3.473,0 L -5.208,50.793 v 0.129 l -36.176,20.886 c -2.315,1.337 -5.208,-0.334 -5.208,-3.007 V -52.672 c 0,-2.673 2.893,-4.344 5.208,-3.007 l 34.439,19.882 c 1.075,0.619 1.737,1.766 1.737,3.006 V -3.006 C -5.208,-0.333 -2.314,1.337 0,0"
             style="fill:#50c9f0;fill-opacity:1;fill-rule:nonzero;stroke:none"
             id="path109" />
        </g>
        <g
           id="g111"
           transform="translate(28.9325,155.0586)">
          <path
             d="m 0,0 v -38.594 l -7.861,-4.552 V 4.539 23.79 32.033 l 3.569,-2.06 19.765,-11.406 82.725,-47.743 82.726,47.743 19.763,11.406 3.57,2.06 V 23.79 4.539 -43.146 l -7.861,4.552 V 0 18.417 L 180.924,9.49 98.198,-38.252 15.473,9.49 0,18.417 Z"
             style="fill:#ffffff;fill-opacity:1;fill-rule:nonzero;stroke:none"
             id="path113" />
        </g>
        <g
           id="g115"
           transform="translate(129.1244,240.6528)">
          <path
             d="m 0,0 70.247,-40.557 c 1.233,-0.712 2.752,-0.712 3.985,0 l 33.413,19.29 c 2.657,1.534 2.657,5.37 0,6.903 L 0,47.785 c -1.233,0.712 -2.752,0.712 -3.985,0 l -107.647,-62.149 c -2.658,-1.533 -2.658,-5.369 0,-6.903 l 33.412,-19.29 c 1.233,-0.712 2.753,-0.712 3.985,0 L -3.985,0 C -2.752,0.712 -1.233,0.712 0,0"
             style="fill:#50c9f0;fill-opacity:1;fill-rule:nonzero;stroke:none"
             id="path117" />
        </g>
        <g
           id="g119"
           transform="translate(41.1078,221.9898)">
          <path
             d="M 0,0 86.024,49.665 172.046,0 164.025,-4.616 86.024,40.417 8.022,-4.616 Z"
             style="fill:#ffffff;fill-opacity:1;fill-rule:nonzero;stroke:none"
             id="path121" />
        </g>
      </g>
    </g>
  </g>
  <g
     id="g125"
     inkscape:groupmode="layer"
     inkscape:label="Page 5"
     transform="matrix(1.3333333,0,0,-1.3333333,1427.744,387.41733)">
    <g
       id="g127">
      <g
         id="g129"
         clip-path="url(#clipPath133)">
        <g
           id="g135"
           transform="translate(208.4043,95.0527)">
          <path
             d="m 0,0 -79.527,-45.915 c -1.191,-0.689 -2.659,-0.689 -3.851,0 l -79.526,45.913 c -1.191,0.689 -2.659,0.689 -3.851,0 l -34.008,-19.634 c -2.568,-1.482 -2.568,-5.188 0,-6.671 l 117.385,-67.769 c 1.192,-0.688 2.66,-0.688 3.851,0 l 38.581,22.274 c 1.191,0.689 2.659,0.689 3.851,0 l 38.452,-22.2 c 1.191,-0.686 2.66,-0.686 3.851,10e-4 l 34.006,19.634 c 2.566,1.482 2.566,5.188 0,6.671 L 8.465,-49.942 c -2.567,1.481 -2.568,5.186 -10e-4,6.67 l 29.394,16.985 c 2.568,1.483 2.567,5.189 -0.002,6.67 L 3.85,0.001 C 2.659,0.688 1.19,0.688 0,0"
             style="fill:#000000;fill-opacity:1;fill-rule:nonzero;stroke:none"
             id="path137" />
        </g>
        <g
           id="g139"
           transform="translate(169.9712,54.7871)">
          <path
             d="M 0,0 15.068,8.702 41.89,24.187 49.975,19.533 23.138,4.041 6.319,-5.67 l 17.985,-10.384 25.664,-14.818 -8.086,-4.652 -25.65,14.81 -17.982,10.384 -6.321,-3.649 -34.949,-20.177 -92.993,53.689 8.084,4.654 84.909,-49.022 z"
             style="fill:#ffffff;fill-opacity:1;fill-rule:nonzero;stroke:none"
             id="path141" />
        </g>
        <g
           id="g143"
           transform="translate(48.8232,141.1172)">
          <path
             d="m 0,0 76.378,-44.097 c 1.082,-0.625 2.417,-0.625 3.499,0 L 156.257,0 c 2.333,1.347 5.249,-0.337 5.249,-3.031 V -33.07 c 0,-1.249 0.667,-2.406 1.75,-3.031 l 34.71,-20.041 c 2.334,-1.345 5.25,0.337 5.25,3.032 V 69.341 c 0,2.694 -2.916,4.377 -5.25,3.03 L 161.506,51.32 V 51.192 L 79.878,4.063 c -1.083,-0.625 -2.418,-0.625 -3.5,0 L -5.249,51.192 v 0.13 l -36.461,21.05 c -2.333,1.348 -5.249,-0.336 -5.249,-3.03 v -122.43 c 0,-2.694 2.916,-4.378 5.249,-3.03 L -7,-36.08 c 1.083,0.625 1.751,1.78 1.751,3.03 V -3.031 C -5.249,-0.337 -2.333,1.347 0,0"
             style="fill:#000000;fill-opacity:1;fill-rule:nonzero;stroke:none"
             id="path145" />
        </g>
        <g
           id="g147"
           transform="translate(27.9795,153.1504)">
          <path
             d="m 0,0 v -38.898 l -7.923,-4.588 v 48.06 19.403 8.308 l 3.598,-2.076 19.92,-11.496 83.377,-48.119 83.378,48.119 19.919,11.496 3.597,2.076 V 23.977 4.574 -43.486 l -7.924,4.588 V 0 18.562 L 182.35,9.564 98.972,-38.554 15.595,9.564 0,18.562 Z"
             style="fill:#ffffff;fill-opacity:1;fill-rule:nonzero;stroke:none"
             id="path149" />
        </g>
        <g
           id="g151"
           transform="translate(128.9604,239.4189)">
          <path
             d="m 0,0 70.8,-40.877 c 1.243,-0.718 2.774,-0.718 4.018,0 l 33.676,19.442 c 2.677,1.546 2.677,5.413 0,6.957 L 0,48.161 c -1.242,0.718 -2.774,0.718 -4.016,0 l -108.495,-62.639 c -2.678,-1.544 -2.678,-5.411 0,-6.957 l 33.676,-19.442 c 1.242,-0.718 2.773,-0.718 4.016,0 L -4.016,0 C -2.774,0.718 -1.242,0.718 0,0"
             style="fill:#000000;fill-opacity:1;fill-rule:nonzero;stroke:none"
             id="path153" />
        </g>
        <g
           id="g155"
           transform="translate(40.2505,220.6084)">
          <path
             d="M 0,0 86.702,50.057 173.402,0 165.317,-4.652 86.702,40.735 8.085,-4.652 Z"
             style="fill:#ffffff;fill-opacity:1;fill-rule:nonzero;stroke:none"
             id="path157" />
        </g>
      </g>
    </g>
  </g>
  <g
     id="g161"
     inkscape:groupmode="layer"
     inkscape:label="Page 6"
     transform="matrix(1.3333333,0,0,-1.3333333,1784.68,387.41733)">
    <g
       id="g163">
      <g
         id="g165"
         clip-path="url(#clipPath169)">
        <g
           id="g171"
           transform="translate(201.2051,101.2129)">
          <path
             d="m 0,0 -71.574,-41.324 c -1.072,-0.619 -2.393,-0.619 -3.466,0 l -71.573,41.322 c -1.072,0.62 -2.394,0.62 -3.466,0 l -30.608,-17.67 c -2.31,-1.334 -2.31,-4.67 0,-6.004 L -75.04,-84.668 c 1.073,-0.62 2.394,-0.62 3.466,0 l 34.723,20.046 c 1.072,0.62 2.393,0.62 3.466,0 L 1.222,-84.601 c 1.071,-0.618 2.393,-0.618 3.465,0.001 l 30.606,17.67 c 2.31,1.334 2.31,4.67 0,6.004 L 7.619,-44.948 c -2.31,1.334 -2.311,4.668 -10e-4,6.003 l 26.454,15.286 c 2.311,1.336 2.31,4.671 -0.001,6.004 L 3.465,0.001 C 2.394,0.619 1.072,0.619 0,0"
             style="fill:#50c9f0;fill-opacity:1;fill-rule:nonzero;stroke:none"
             id="path173" />
        </g>
        <g
           id="g175"
           transform="translate(166.6152,64.9741)">
          <path
             d="M 0,0 13.562,7.832 37.701,21.767 44.978,17.58 20.825,3.636 5.687,-5.104 l 16.187,-9.344 23.098,-13.337 -7.278,-4.188 -23.085,13.331 -16.184,9.345 -5.689,-3.285 -31.453,-18.159 -83.694,48.321 7.275,4.187 76.419,-44.119 z"
             style="fill:#ffffff;fill-opacity:1;fill-rule:nonzero;stroke:none"
             id="path177" />
        </g>
        <g
           id="g179"
           transform="translate(57.582,142.6704)">
          <path
             d="m 0,0 68.741,-39.687 c 0.974,-0.562 2.175,-0.562 3.149,0 L 140.631,0 c 2.1,1.213 4.724,-0.303 4.724,-2.727 v -27.036 c 0,-1.124 0.601,-2.164 1.576,-2.727 l 31.239,-18.037 c 2.101,-1.211 4.725,0.303 4.725,2.729 V 62.408 c 0,2.424 -2.624,3.939 -4.725,2.727 L 145.355,46.188 V 46.074 L 71.891,3.658 c -0.975,-0.563 -2.176,-0.563 -3.15,0 L -4.724,46.074 v 0.116 l -32.814,18.946 c -2.101,1.213 -4.725,-0.303 -4.725,-2.727 V -47.779 c 0,-2.424 2.624,-3.94 4.725,-2.727 l 31.239,18.034 c 0.975,0.563 1.575,1.602 1.575,2.728 v 27.017 c 0,2.424 2.625,3.94 4.724,2.727"
             style="fill:#50c9f0;fill-opacity:1;fill-rule:nonzero;stroke:none"
             id="path181" />
        </g>
        <g
           id="g183"
           transform="translate(38.8232,153.5005)">
          <path
             d="m 0,0 v -35.008 l -7.131,-4.129 v 43.255 17.461 7.478 l 3.238,-1.869 17.928,-10.346 75.039,-43.307 75.04,43.307 17.927,10.346 3.238,1.869 V 21.579 4.118 -39.137 l -7.131,4.129 V 0 16.707 L 164.114,8.608 89.074,-34.698 14.035,8.608 0,16.707 Z"
             style="fill:#ffffff;fill-opacity:1;fill-rule:nonzero;stroke:none"
             id="path185" />
        </g>
        <g
           id="g187"
           transform="translate(129.7061,231.1421)">
          <path
             d="m 0,0 63.72,-36.789 c 1.119,-0.646 2.497,-0.646 3.616,0 l 30.308,17.498 c 2.41,1.392 2.41,4.871 0,6.262 L 0,43.345 c -1.118,0.646 -2.497,0.646 -3.615,0 l -97.646,-56.374 c -2.41,-1.391 -2.41,-4.87 0,-6.262 l 30.309,-17.498 c 1.118,-0.646 2.496,-0.646 3.614,0 L -3.615,0 C -2.497,0.646 -1.118,0.646 0,0"
             style="fill:#50c9f0;fill-opacity:1;fill-rule:nonzero;stroke:none"
             id="path189" />
        </g>
        <g
           id="g191"
           transform="translate(49.8672,214.2134)">
          <path
             d="M 0,0 78.032,45.05 156.062,0 148.785,-4.187 78.032,36.662 7.276,-4.187 Z"
             style="fill:#ffffff;fill-opacity:1;fill-rule:nonzero;stroke:none"
             id="path193" />
        </g>
      </g>
    </g>
    <text
       xml:space="preserve"
       transform="matrix(1,0,0,-1,272.0225,137.9238)"
       style="font-variant:normal;font-weight:normal;font-stretch:normal;font-size:99.7546px;font-family:'Reem Kufi';-inkscape-font-specification:ReemKufi-Regular;writing-mode:lr-tb;fill:#3a3a3a;fill-opacity:1;fill-rule:nonzero;stroke:none"
       id="text197"><tspan
         x="0 88.582085 148.63435 241.40613 267.34232 342.75681 408.09607 466.15326 497.07718 572.19238"
         y="0"
         sodipodi:role="line"
         id="tspan195">QPM DESIGN</tspan></text>
    <text
       xml:space="preserve"
       transform="matrix(1,0,0,-1,278.6172,90.416)"
       style="font-variant:normal;font-weight:normal;font-stretch:normal;font-size:43.0441px;font-family:'Century Gothic';-inkscape-font-specification:CenturyGothic;writing-mode:lr-tb;fill:#3a3a3a;fill-opacity:1;fill-rule:nonzero;stroke:none"
       id="text201"><tspan
         x="0 29.356075 55.52689 64.135712 90.392609 116.64951 157.02487 184.8744 211.13132 237.30212 266.27081 292.52771 304.45093 330.70782 358.68649"
         y="0"
         sodipodi:role="line"
         id="tspan199">quinnmchugh.net</tspan></text>
  </g>
  <g
     id="g205"
     inkscape:groupmode="layer"
     inkscape:label="Page 7"
     transform="matrix(1.3333333,0,0,-1.3333333,3434.0533,387.41733)">
    <g
       id="g207">
      <g
         id="g209"
         clip-path="url(#clipPath213)">
        <g
           id="g215"
           transform="translate(201.2051,102.2134)">
          <path
             d="m 0,0 -71.574,-41.324 c -1.072,-0.619 -2.393,-0.619 -3.466,0 l -71.573,41.322 c -1.072,0.619 -2.394,0.619 -3.466,0 l -30.608,-17.671 c -2.31,-1.333 -2.31,-4.669 0,-6.003 L -75.04,-84.669 c 1.073,-0.619 2.394,-0.619 3.466,0 l 34.723,20.047 c 1.072,0.619 2.393,0.619 3.466,0 l 34.607,-19.98 c 1.071,-0.618 2.393,-0.618 3.465,0.001 l 30.606,17.67 c 2.31,1.334 2.31,4.67 0,6.004 L 7.619,-44.948 c -2.31,1.333 -2.311,4.668 -10e-4,6.002 l 26.454,15.287 c 2.311,1.336 2.31,4.671 -0.001,6.004 L 3.465,0 C 2.394,0.619 1.072,0.619 0,0"
             style="fill:#000000;fill-opacity:1;fill-rule:nonzero;stroke:none"
             id="path217" />
        </g>
        <g
           id="g219"
           transform="translate(166.6152,65.9741)">
          <path
             d="M 0,0 13.562,7.832 37.701,21.768 44.978,17.579 20.825,3.637 5.687,-5.104 l 16.187,-9.344 23.098,-13.337 -7.278,-4.188 -23.085,13.33 -16.184,9.345 -5.689,-3.284 -31.453,-18.159 -83.694,48.32 7.275,4.189 76.419,-44.12 z"
             style="fill:#ffffff;fill-opacity:1;fill-rule:nonzero;stroke:none"
             id="path221" />
        </g>
        <g
           id="g223"
           transform="translate(57.582,143.6704)">
          <path
             d="m 0,0 68.741,-39.687 c 0.974,-0.562 2.175,-0.562 3.149,0 L 140.631,0 c 2.1,1.213 4.724,-0.303 4.724,-2.728 v -27.035 c 0,-1.125 0.601,-2.164 1.576,-2.727 l 31.239,-18.036 c 2.101,-1.212 4.725,0.302 4.725,2.727 V 62.407 c 0,2.425 -2.624,3.94 -4.725,2.728 L 145.355,46.188 V 46.074 L 71.891,3.657 c -0.975,-0.562 -2.176,-0.562 -3.15,0 L -4.724,46.074 v 0.116 l -32.814,18.946 c -2.101,1.213 -4.725,-0.303 -4.725,-2.728 V -47.779 c 0,-2.424 2.624,-3.94 4.725,-2.727 l 31.239,18.034 c 0.975,0.563 1.575,1.603 1.575,2.728 V -2.728 C -4.724,-0.303 -2.099,1.213 0,0"
             style="fill:#000000;fill-opacity:1;fill-rule:nonzero;stroke:none"
             id="path225" />
        </g>
        <g
           id="g227"
           transform="translate(38.8232,154.5005)">
          <path
             d="m 0,0 v -35.008 l -7.131,-4.129 v 43.254 17.462 7.478 l 3.238,-1.869 17.928,-10.346 75.039,-43.307 75.04,43.307 17.927,10.346 3.238,1.869 V 21.579 4.117 -39.137 l -7.131,4.129 V 0 16.706 L 164.114,8.608 89.074,-34.698 14.035,8.608 0,16.706 Z"
             style="fill:#ffffff;fill-opacity:1;fill-rule:nonzero;stroke:none"
             id="path229" />
        </g>
        <g
           id="g231"
           transform="translate(129.7061,232.1421)">
          <path
             d="m 0,0 63.72,-36.788 c 1.119,-0.647 2.497,-0.647 3.616,0 l 30.308,17.497 c 2.41,1.392 2.41,4.871 0,6.262 L 0,43.346 c -1.118,0.645 -2.497,0.645 -3.615,0 l -97.646,-56.375 c -2.41,-1.391 -2.41,-4.87 0,-6.262 l 30.309,-17.497 c 1.118,-0.647 2.496,-0.647 3.614,0 L -3.615,0 C -2.497,0.646 -1.118,0.646 0,0"
             style="fill:#000000;fill-opacity:1;fill-rule:nonzero;stroke:none"
             id="path233" />
        </g>
        <g
           id="g235"
           transform="translate(49.8672,215.2134)">
          <path
             d="M 0,0 78.032,45.051 156.062,0 148.785,-4.187 78.032,36.662 7.276,-4.187 Z"
             style="fill:#ffffff;fill-opacity:1;fill-rule:nonzero;stroke:none"
             id="path237" />
        </g>
      </g>
    </g>
    <text
       xml:space="preserve"
       transform="matrix(1,0,0,-1,272.0225,138.9238)"
       style="font-variant:normal;font-weight:normal;font-stretch:normal;font-size:99.7546px;font-family:'Reem Kufi';-inkscape-font-specification:ReemKufi-Regular;writing-mode:lr-tb;fill:#000000;fill-opacity:1;fill-rule:nonzero;stroke:none"
       id="text241"><tspan
         x="0 88.582085 148.63435 241.40613 267.34232 342.75681 408.09607 466.15326 497.07718 572.19238"
         y="0"
         sodipodi:role="line"
         id="tspan239">QPM DESIGN</tspan></text>
    <text
       xml:space="preserve"
       transform="matrix(1,0,0,-1,278.6172,91.416)"
       style="font-variant:normal;font-weight:normal;font-stretch:normal;font-size:43.0441px;font-family:'Century Gothic';-inkscape-font-specification:CenturyGothic;writing-mode:lr-tb;fill:#000000;fill-opacity:1;fill-rule:nonzero;stroke:none"
       id="text245"><tspan
         x="0 29.356075 55.52689 64.135712 90.392609 116.64951 157.02487 184.8744 211.13132 237.30212 266.27081 292.52771 304.45093 330.70782 358.68649"
         y="0"
         sodipodi:role="line"
         id="tspan243">quinnmchugh.net</tspan></text>
  </g>
  <g
     id="g249"
     inkscape:groupmode="layer"
     inkscape:label="Page 8"
     transform="matrix(1.3333333,0,0,-1.3333333,5083.3867,387.41733)">
    <g
       id="g251">
      <g
         id="g253"
         clip-path="url(#clipPath257)">
        <g
           id="g259"
           transform="translate(207.3091,33.0015)">
          <path
             d="m 0,0 -23.085,13.331 -16.184,9.344 -5.689,-3.284 -31.453,-18.16 -83.694,48.321 7.276,4.188 76.418,-44.119 38.718,22.352 13.56,7.832 L 0.008,53.74 7.284,49.552 -16.869,35.609 -32.006,26.869 -15.819,17.524 7.277,4.188 Z M 32.188,7.285 4.515,23.263 c -2.31,1.334 -2.312,4.668 -10e-4,6.003 l 26.455,15.287 c 2.31,1.335 2.309,4.67 -0.002,6.003 L 0.361,68.212 c -1.072,0.619 -2.393,0.619 -3.465,-0.001 L -74.678,26.888 c -1.072,-0.619 -2.393,-0.619 -3.467,0 l -71.572,41.321 c -1.072,0.62 -2.393,0.62 -3.467,0 L -183.791,50.54 c -2.311,-1.334 -2.311,-4.67 0,-6.004 l 105.646,-60.993 c 1.074,-0.619 2.395,-0.619 3.467,0 L -39.955,3.59 c 1.072,0.619 2.393,0.619 3.466,0 l 34.606,-19.98 c 1.072,-0.618 2.394,-0.618 3.467,0.001 l 30.604,17.67 c 2.311,1.334 2.311,4.67 0,6.004"
             style="fill:#50c9f0;fill-opacity:1;fill-rule:nonzero;stroke:none"
             id="path261" />
        </g>
        <g
           id="g263"
           transform="translate(227.1021,175.0801)">
          <path
             d="m 0,0 v -17.462 -43.255 l -7.131,4.129 v 35.008 16.707 l -14.034,-8.099 -75.04,-43.305 -75.039,43.305 -14.035,8.099 V -21.58 -56.588 l -7.13,-4.129 V -17.462 0 7.477 l 3.237,-1.869 17.928,-10.346 75.039,-43.307 75.04,43.307 L -3.238,5.608 0,7.477 Z M 11.65,32.725 -21.165,13.779 V 13.664 L -94.63,-28.752 c -0.974,-0.563 -2.176,-0.563 -3.149,0 l -73.465,42.416 v 0.117 l -32.815,18.945 c -2.099,1.213 -4.723,-0.303 -4.723,-2.727 V -80.188 c 0,-2.425 2.624,-3.94 4.723,-2.728 l 31.24,18.035 c 0.974,0.562 1.575,1.602 1.575,2.727 v 27.017 c 0,2.425 2.625,3.94 4.724,2.727 l 68.741,-39.687 c 0.973,-0.562 2.175,-0.562 3.148,0 l 68.742,39.687 c 2.1,1.213 4.724,-0.302 4.724,-2.727 v -27.035 c 0,-1.125 0.601,-2.165 1.575,-2.728 l 31.24,-18.037 c 2.1,-1.211 4.725,0.304 4.725,2.729 V 29.998 c 0,2.424 -2.625,3.939 -4.725,2.727"
             style="fill:#50c9f0;fill-opacity:1;fill-rule:nonzero;stroke:none"
             id="path265" />
        </g>
        <g
           id="g267"
           transform="translate(130.899,259.2637)">
          <path
             d="M 0,0 78.029,-45.05 70.754,-49.237 0,-8.389 l -70.755,-40.848 -7.277,4.187 z m -99.453,-47.413 30.307,-17.497 c 1.119,-0.646 2.498,-0.646 3.616,0 l 63.722,36.788 c 1.119,0.646 2.496,0.646 3.615,0 l 63.72,-36.788 c 1.119,-0.646 2.496,-0.646 3.616,0 l 30.308,17.497 c 2.41,1.392 2.41,4.871 0,6.263 L 1.807,15.224 c -1.119,0.646 -2.496,0.646 -3.615,0 L -99.453,-41.15 c -2.41,-1.392 -2.41,-4.871 0,-6.263"
             style="fill:#50c9f0;fill-opacity:1;fill-rule:nonzero;stroke:none"
             id="path269" />
        </g>
      </g>
    </g>
    <text
       xml:space="preserve"
       transform="matrix(1,0,0,-1,275.0225,137.9229)"
       style="font-variant:normal;font-weight:normal;font-stretch:normal;font-size:99.7546px;font-family:'Reem Kufi';-inkscape-font-specification:ReemKufi-Regular;writing-mode:lr-tb;fill:#3a3a3a;fill-opacity:1;fill-rule:nonzero;stroke:none"
       id="text273"><tspan
         x="0 88.582085 148.63435 241.40613 267.34232 342.75681 408.09607 466.15326 497.07718 572.19238"
         y="0"
         sodipodi:role="line"
         id="tspan271">QPM DESIGN</tspan></text>
    <text
       xml:space="preserve"
       transform="matrix(1,0,0,-1,281.6172,90.415)"
       style="font-variant:normal;font-weight:normal;font-stretch:normal;font-size:43.0441px;font-family:'Century Gothic';-inkscape-font-specification:CenturyGothic;writing-mode:lr-tb;fill:#3a3a3a;fill-opacity:1;fill-rule:nonzero;stroke:none"
       id="text277"><tspan
         x="0 29.356075 55.52689 64.135712 90.392609 116.64951 157.02487 184.8744 211.13132 237.30212 266.27081 292.52771 304.45093 330.70782 358.68649"
         y="0"
         sodipodi:role="line"
         id="tspan275">quinnmchugh.net</tspan></text>
  </g>
  <g
     id="g281"
     inkscape:groupmode="layer"
     inkscape:label="Page 9"
     transform="matrix(1.3333333,0,0,-1.3333333,6732.76,387.41733)">
    <g
       id="g283">
      <g
         id="g285"
         clip-path="url(#clipPath289)">
        <g
           id="g291"
           transform="translate(207.3096,36.002)">
          <path
             d="m 0,0 -23.085,13.33 -16.185,9.345 -5.688,-3.284 -31.453,-18.16 -83.694,48.321 7.275,4.187 76.419,-44.118 38.717,22.352 13.561,7.831 L 0.007,53.739 7.284,49.552 -16.87,35.608 -32.007,26.869 -15.82,17.523 7.277,4.187 Z M 32.188,7.284 4.515,23.263 c -2.311,1.334 -2.312,4.668 -10e-4,6.003 l 26.454,15.287 c 2.31,1.335 2.309,4.67 -0.001,6.003 L 0.36,68.212 C -0.711,68.83 -2.032,68.83 -3.104,68.211 L -74.679,26.888 c -1.072,-0.62 -2.392,-0.62 -3.466,0 l -71.573,41.321 c -1.072,0.619 -2.393,0.619 -3.466,0 l -30.607,-17.67 c -2.311,-1.334 -2.311,-4.67 0,-6.004 l 105.646,-60.992 c 1.074,-0.619 2.394,-0.619 3.466,0 L -39.955,3.59 c 1.071,0.619 2.392,0.619 3.466,0 l 34.606,-19.981 c 1.071,-0.618 2.394,-0.618 3.466,10e-4 L 32.188,1.281 c 2.31,1.334 2.31,4.669 0,6.003"
             style="fill:#000000;fill-opacity:1;fill-rule:nonzero;stroke:none"
             id="path293" />
        </g>
        <g
           id="g295"
           transform="translate(227.1025,178.0801)">
          <path
             d="m 0,0 v -17.462 -43.255 l -7.131,4.129 v 35.009 16.706 l -14.034,-8.099 -75.04,-43.305 -75.039,43.305 -14.035,8.099 v -16.706 -35.009 l -7.131,-4.129 V -17.462 0 7.477 l 3.238,-1.869 17.928,-10.345 75.039,-43.308 75.04,43.308 L -3.238,5.608 0,7.477 Z M 11.649,32.726 -21.165,13.779 V 13.664 L -94.63,-28.752 c -0.974,-0.563 -2.176,-0.563 -3.149,0 l -73.465,42.416 v 0.117 l -32.815,18.946 c -2.1,1.211 -4.724,-0.304 -4.724,-2.728 V -80.188 c 0,-2.425 2.624,-3.941 4.724,-2.728 l 31.24,18.035 c 0.974,0.563 1.575,1.602 1.575,2.728 v 27.016 c 0,2.424 2.625,3.94 4.723,2.728 l 68.742,-39.688 c 0.973,-0.561 2.175,-0.561 3.148,0 l 68.741,39.688 c 2.101,1.212 4.725,-0.304 4.725,-2.728 v -27.036 c 0,-1.124 0.601,-2.164 1.575,-2.726 l 31.239,-18.038 c 2.1,-1.211 4.725,0.303 4.725,2.729 V 29.998 c 0,2.424 -2.625,3.94 -4.725,2.728"
             style="fill:#000000;fill-opacity:1;fill-rule:nonzero;stroke:none"
             id="path297" />
        </g>
        <g
           id="g299"
           transform="translate(201.6523,213.0264)">
          <path
             d="M 0,0 -70.754,40.849 -141.509,0 l -7.276,4.187 78.031,45.05 78.03,-45.05 z m 28.697,8.087 -97.643,56.374 c -1.118,0.646 -2.497,0.646 -3.616,0 L -170.207,8.087 c -2.41,-1.391 -2.41,-4.87 0,-6.262 l 30.309,-17.498 c 1.118,-0.645 2.496,-0.645 3.615,0 l 63.721,36.789 c 1.119,0.646 2.498,0.646 3.616,0 l 63.719,-36.789 c 1.12,-0.645 2.497,-0.645 3.616,0 L 28.697,1.825 c 2.41,1.392 2.41,4.871 0,6.262"
             style="fill:#000000;fill-opacity:1;fill-rule:nonzero;stroke:none"
             id="path301" />
        </g>
      </g>
    </g>
    <text
       xml:space="preserve"
       transform="matrix(1,0,0,-1,275.0225,140.9238)"
       style="font-variant:normal;font-weight:normal;font-stretch:normal;font-size:99.7546px;font-family:'Reem Kufi';-inkscape-font-specification:ReemKufi-Regular;writing-mode:lr-tb;fill:#000000;fill-opacity:1;fill-rule:nonzero;stroke:none"
       id="text305"><tspan
         x="0 88.582085 148.63435 241.40613 267.34232 342.75681 408.09607 466.15326 497.07718 572.19238"
         y="0"
         sodipodi:role="line"
         id="tspan303">QPM DESIGN</tspan></text>
    <text
       xml:space="preserve"
       transform="matrix(1,0,0,-1,281.6172,93.416)"
       style="font-variant:normal;font-weight:normal;font-stretch:normal;font-size:43.0441px;font-family:'Century Gothic';-inkscape-font-specification:CenturyGothic;writing-mode:lr-tb;fill:#000000;fill-opacity:1;fill-rule:nonzero;stroke:none"
       id="text309"><tspan
         x="0 29.356075 55.52689 64.135712 90.392609 116.64951 157.02487 184.8744 211.13132 237.30212 266.27081 292.52771 304.45093 330.70782 358.68649"
         y="0"
         sodipodi:role="line"
         id="tspan307">quinnmchugh.net</tspan></text>
  </g>
  <g
     id="g313"
     inkscape:groupmode="layer"
     inkscape:label="Page 10"
     transform="matrix(1.3333333,0,0,-1.3333333,8382.0933,387.41733)">
    <text
       xml:space="preserve"
       transform="matrix(1,0,0,-1,271.7246,138.3604)"
       style="font-variant:normal;font-weight:normal;font-stretch:normal;font-size:99.7546px;font-family:'Reem Kufi';-inkscape-font-specification:ReemKufi-Regular;writing-mode:lr-tb;fill:#ffffff;fill-opacity:1;fill-rule:nonzero;stroke:none"
       id="text317"><tspan
         x="0 88.582085 148.63435 241.40613 267.34232 342.75681 408.09607 466.15326 497.07718 572.19238"
         y="0"
         sodipodi:role="line"
         id="tspan315">QPM DESIGN</tspan></text>
    <text
       xml:space="preserve"
       transform="matrix(1,0,0,-1,278.3193,90.8525)"
       style="font-variant:normal;font-weight:normal;font-stretch:normal;font-size:43.0441px;font-family:'Century Gothic';-inkscape-font-specification:CenturyGothic;writing-mode:lr-tb;fill:#ffffff;fill-opacity:1;fill-rule:nonzero;stroke:none"
       id="text321"><tspan
         x="0 29.356075 55.52689 64.135712 90.392609 116.64951 157.02487 184.8744 211.13132 237.30212 266.27081 292.52771 304.45093 330.70782 358.68649"
         y="0"
         sodipodi:role="line"
         id="tspan319">quinnmchugh.net</tspan></text>
    <g
       id="g323">
      <g
         id="g325"
         clip-path="url(#clipPath329)">
        <g
           id="g331"
           transform="translate(204.0107,32.2837)">
          <path
             d="M 0,0 -39.269,22.675 -76.41,1.231 l -85.697,49.476 9.279,5.342 L -76.41,11.93 0.007,56.049 9.288,50.707 -30.006,28.023 9.28,5.34 Z M 32.188,8.439 4.516,24.418 c -2.311,1.334 -2.312,4.668 -0.001,6.003 l 26.454,15.287 c 2.31,1.335 2.309,4.67 -0.002,6.003 L 0.361,69.367 c -1.072,0.618 -2.393,0.618 -3.465,-0.001 L -74.678,28.043 c -1.072,-0.62 -2.393,-0.62 -3.466,0 l -71.573,41.321 c -1.072,0.619 -2.393,0.619 -3.466,0 l -30.607,-17.67 c -2.311,-1.334 -2.311,-4.67 0,-6.004 l 105.646,-60.992 c 1.073,-0.619 2.394,-0.619 3.466,0 l 34.724,20.047 c 1.071,0.619 2.392,0.619 3.466,0 l 34.606,-19.98 c 1.071,-0.619 2.393,-0.619 3.466,10e-4 L 32.188,2.437 c 2.311,1.333 2.311,4.668 0,6.002"
             style="fill:#ffffff;fill-opacity:1;fill-rule:nonzero;stroke:none"
             id="path333" />
        </g>
        <g
           id="g335"
           transform="translate(224.8037,113.0659)">
          <path
             d="M 0,0 -9.13,5.287 V 55.846 L -97.204,5.019 -185.278,55.846 V 5.287 L -194.409,0 V 71.659 L -97.204,15.561 0,71.659 Z M 10.65,95.177 -22.164,76.23 V 76.115 L -95.629,33.699 c -0.975,-0.563 -2.176,-0.563 -3.149,0 l -73.465,42.416 v 0.117 l -32.816,18.946 c -2.099,1.212 -4.723,-0.304 -4.723,-2.728 V -17.737 c 0,-2.425 2.624,-3.941 4.723,-2.728 l 31.241,18.035 c 0.974,0.562 1.575,1.602 1.575,2.728 v 27.016 c 0,2.424 2.625,3.94 4.723,2.728 l 68.742,-39.688 c 0.973,-0.561 2.174,-0.561 3.148,0 l 68.741,39.688 c 2.101,1.212 4.725,-0.304 4.725,-2.728 V 0.278 c 0,-1.124 0.601,-2.164 1.575,-2.726 L 10.65,-20.485 c 2.1,-1.212 4.725,0.302 4.725,2.728 V 92.449 c 0,2.424 -2.625,3.939 -4.725,2.728"
             style="fill:#ffffff;fill-opacity:1;fill-rule:nonzero;stroke:none"
             id="path337" />
        </g>
        <g
           id="g339"
           transform="translate(127.6006,260.855)">
          <path
             d="M 0,0 80.031,-46.206 70.753,-51.547 0,-10.697 l -70.754,-40.85 -9.279,5.341 z m -99.453,-48.566 30.308,-17.498 c 1.119,-0.646 2.497,-0.646 3.615,0 l 63.722,36.789 c 1.119,0.645 2.497,0.645 3.616,0 l 63.719,-36.789 c 1.119,-0.646 2.496,-0.646 3.616,0 l 30.308,17.498 c 2.41,1.391 2.41,4.871 0,6.261 L 1.808,14.069 c -1.119,0.647 -2.497,0.647 -3.616,0 l -97.645,-56.374 c -2.41,-1.39 -2.41,-4.87 0,-6.261"
             style="fill:#ffffff;fill-opacity:1;fill-rule:nonzero;stroke:none"
             id="path341" />
        </g>
      </g>
    </g>
  </g>
  <g
     id="g345"
     inkscape:groupmode="layer"
     inkscape:label="Page 11"
     transform="matrix(1.3333333,0,0,-1.3333333,10032.36,533.33333)">
    <g
       id="g347">
      <g
         id="g349"
         clip-path="url(#clipPath353)">
        <g
           id="g355"
           transform="translate(283.4226,159.3352)">
          <path
             d="m 0,0 -79.526,-45.915 c -1.192,-0.689 -2.66,-0.689 -3.852,0 l -79.525,45.913 c -1.192,0.688 -2.659,0.688 -3.852,0 l -34.008,-19.634 c -2.567,-1.481 -2.567,-5.188 0,-6.671 l 117.385,-67.768 c 1.192,-0.689 2.66,-0.689 3.852,0 l 38.581,22.273 c 1.19,0.689 2.659,0.689 3.85,0 L 1.357,-94.001 c 1.191,-0.687 2.66,-0.687 3.851,0.001 l 34.006,19.633 c 2.567,1.482 2.567,5.189 0,6.671 L 8.466,-49.942 c -2.568,1.482 -2.569,5.186 -10e-4,6.67 l 29.393,16.985 c 2.568,1.483 2.567,5.189 -0.002,6.67 L 3.851,0.001 C 2.659,0.688 1.191,0.688 0,0 m -38.433,-40.266 15.068,8.703 26.822,15.483 8.085,-4.652 -26.837,-15.493 -16.818,-9.711 17.985,-10.383 25.663,-14.819 -8.086,-4.652 -25.65,14.811 -17.982,10.383 -6.321,-3.649 -34.948,-20.177 -92.994,53.69 8.085,4.652 84.909,-49.021 z"
             style="fill:#50c9f0;fill-opacity:1;fill-rule:nonzero;stroke:none"
             id="path357" />
        </g>
        <g
           id="g359"
           transform="translate(102.9978,217.4329)">
          <path
             d="m 0,0 v -38.898 l -7.923,-4.588 v 48.061 19.402 8.308 l 3.598,-2.076 19.92,-11.496 83.377,-48.119 83.378,48.119 19.919,11.496 3.597,2.076 V 23.977 4.575 -43.486 l -7.923,4.588 V 0 18.562 L 182.35,9.564 98.972,-38.554 15.595,9.564 0,18.562 Z M 20.844,-12.034 97.223,-56.13 c 1.082,-0.625 2.416,-0.625 3.498,0 l 76.38,44.096 c 2.333,1.348 5.249,-0.336 5.249,-3.03 v -30.04 c 0,-1.249 0.667,-2.404 1.75,-3.03 l 34.711,-20.04 c 2.333,-1.347 5.25,0.336 5.25,3.031 V 57.308 c 0,2.694 -2.917,4.377 -5.25,3.03 L 182.35,39.287 V 39.159 L 100.722,-7.97 c -1.083,-0.625 -2.417,-0.625 -3.499,0 L 15.595,39.159 v 0.13 l -36.461,21.05 c -2.333,1.348 -5.248,-0.336 -5.248,-3.03 v -122.43 c 0,-2.694 2.915,-4.378 5.248,-3.031 l 34.711,20.039 c 1.083,0.625 1.75,1.78 1.75,3.03 v 30.019 c 0,2.694 2.917,4.378 5.249,3.03"
             style="fill:#50c9f0;fill-opacity:1;fill-rule:nonzero;stroke:none"
             id="path361" />
        </g>
        <g
           id="g363"
           transform="translate(115.2693,284.8909)">
          <path
             d="M 0,0 86.702,50.057 173.401,0 165.317,-4.652 86.702,40.736 8.085,-4.652 Z m 88.71,18.81 70.8,-40.876 c 1.243,-0.718 2.774,-0.718 4.017,0 l 33.676,19.441 c 2.678,1.547 2.678,5.413 0,6.958 L 88.71,66.972 c -1.242,0.717 -2.774,0.717 -4.017,0 L -23.802,4.333 c -2.677,-1.545 -2.677,-5.411 0,-6.958 L 9.874,-22.066 c 1.242,-0.718 2.774,-0.718 4.017,0 L 84.693,18.81 c 1.243,0.718 2.775,0.718 4.017,0"
             style="fill:#50c9f0;fill-opacity:1;fill-rule:nonzero;stroke:none"
             id="path365" />
        </g>
      </g>
    </g>
    <text
       xml:space="preserve"
       transform="matrix(1,0,0,-1,408.0225,174.1636)"
       style="font-variant:normal;font-weight:normal;font-stretch:normal;font-size:84.7097px;font-family:'Reem Kufi';-inkscape-font-specification:ReemKufi-Regular;writing-mode:lr-tb;fill:#3a3a3a;fill-opacity:1;fill-rule:nonzero;stroke:none"
       id="text369"><tspan
         x="0 75.222214 126.21745 204.99747 227.022 291.06253 346.54739 395.84842 422.10843 485.89484"
         y="0"
         sodipodi:role="line"
         id="tspan367">QPM DESIGN</tspan></text>
  </g>
</svg>
