<?xml version="1.0" encoding="utf-8"?>
<!-- Generator: Adobe Illustrator 23.0.1, SVG Export Plug-In . SVG Version: 6.00 Build 0)  -->
<svg version="1.1" id="Layer_1" xmlns="http://www.w3.org/2000/svg" xmlns:xlink="http://www.w3.org/1999/xlink" x="0px" y="0px"
	 viewBox="0 0 252.7 290.6" style="enable-background:new 0 0 252.7 290.6;" xml:space="preserve">
<style type="text/css">
	.st0{fill:#FFFFFF;}
	.st1{fill:#50C9F0;}
	.st2{fill:none;}
</style>
<g>
	<polygon class="st2" points="126.7,28.2 204.8,73.3 212.8,68.7 126.7,18.9 40.5,68.7 48.5,73.3 	"/>
	<path class="st1" d="M246.6,260.8L216,243.2c-2.6-1.5-2.6-5.2,0-6.6l29.2-16.9c2.6-1.5,2.6-5.2,0-6.6l-33.8-19.5
		c-1.2-0.7-2.6-0.7-3.8,0l-79.1,45.6c-1.2,0.7-2.6,0.7-3.8,0l-79.1-45.6c-1.2-0.7-2.6-0.7-3.8,0L8.1,213c-2.6,1.5-2.6,5.2,0,6.6
		L124.7,287c1.2,0.7,2.6,0.7,3.8,0l38.4-22.1c1.2-0.7,2.6-0.7,3.8,0l38.2,22.1c1.2,0.7,2.6,0.7,3.8,0l33.8-19.5
		C249.2,266,249.2,262.3,246.6,260.8z M211.1,268.8l-25.5-14.7l-17.9-10.3l-6.3,3.6l-34.7,20.1l-92.4-53.4l8-4.6l84.4,48.7
		l42.8-24.7l15-8.7l26.7-15.4l8,4.6l-26.7,15.4l-16.7,9.7l17.9,10.3l25.5,14.7L211.1,268.8z"/>
	<path class="st1" d="M245.8,75.8l-36.2,20.9v0.1l-81.1,46.8c-1.1,0.6-2.4,0.6-3.5,0L43.8,96.8v-0.1L7.5,75.8
		c-2.3-1.3-5.2,0.3-5.2,3v121.7c0,2.7,2.9,4.4,5.2,3L42,183.6c1.1-0.6,1.7-1.8,1.7-3v-29.8c0-2.7,2.9-4.4,5.2-3l75.9,43.8
		c1.1,0.6,2.4,0.6,3.5,0l75.9-43.8c2.3-1.3,5.2,0.3,5.2,3v29.9c0,1.2,0.7,2.4,1.7,3l34.5,19.9c2.3,1.3,5.2-0.3,5.2-3V78.8
		C251,76.1,248.1,74.4,245.8,75.8z M232.9,111.9v19.3V179l-7.9-4.6v-38.7v-18.5l-15.5,8.9l-82.9,47.8l-82.9-47.8l-15.5-8.9v18.5
		v38.7l-7.9,4.6v-47.8v-19.3v-8.3l3.6,2.1l19.8,11.4l82.9,47.8l82.9-47.8l19.8-11.4l3.6-2.1V111.9z"/>
	<path class="st1" d="M16.8,71.3l33.5,19.3c1.2,0.7,2.8,0.7,4,0L124.7,50c1.2-0.7,2.8-0.7,4,0L199,90.6c1.2,0.7,2.8,0.7,4,0
		l33.5-19.3c2.7-1.5,2.7-5.4,0-6.9L128.7,2.1c-1.2-0.7-2.8-0.7-4,0L16.8,64.4C14.2,65.9,14.2,69.8,16.8,71.3z M126.7,18.9l86.2,49.8
		l-8,4.6l-78.1-45.1L48.5,73.3l-8-4.6L126.7,18.9z"/>
</g>
</svg>
